<svg width="23" height="23" viewBox="0 0 23 23" fill="none" xmlns="http://www.w3.org/2000/svg">
<path d="M7.87563 11.02C7.42357 11.0215 6.97951 11.1394 6.58619 11.3622C7.13995 9.92884 8.05839 8.66493 9.25063 7.69553C9.31885 7.63936 9.37533 7.5703 9.41685 7.49229C9.45838 7.41429 9.48413 7.32887 9.49264 7.24091C9.50115 7.15295 9.49226 7.06418 9.46646 6.97966C9.44067 6.89514 9.39847 6.81653 9.3423 6.74831C9.28612 6.6801 9.21706 6.62362 9.13905 6.58209C9.06105 6.54057 8.97563 6.51481 8.88767 6.5063C8.79971 6.49779 8.71094 6.50669 8.62642 6.53248C8.5419 6.55828 8.46329 6.60047 8.39508 6.65665C5.95063 8.64276 4.86285 11.3928 4.86285 13.0978C4.86707 13.7006 5.04672 14.2892 5.37988 14.7917C5.71304 15.2941 6.18529 15.6887 6.73897 15.9272C7.0973 16.1008 7.48971 16.1926 7.88785 16.1961C8.2383 16.2131 8.58856 16.1588 8.91739 16.0364C9.24622 15.9141 9.54677 15.7262 9.80081 15.4842C10.0549 15.2422 10.2571 14.9511 10.3953 14.6286C10.5335 14.3061 10.6048 13.9589 10.6048 13.608C10.6048 13.2572 10.5335 12.91 10.3953 12.5875C10.2571 12.265 10.0549 11.9739 9.80081 11.7319C9.54677 11.4899 9.24622 11.302 8.91739 11.1796C8.58856 11.0573 8.2383 11.0029 7.88785 11.02H7.87563Z" fill="#38ACFF"/>
<path d="M14.6834 11.0198C14.2313 11.0207 13.7871 11.1386 13.394 11.362C13.9475 9.93014 14.8636 8.66665 16.0523 7.69533C16.1267 7.64169 16.1894 7.5734 16.2364 7.49465C16.2834 7.41591 16.3138 7.32837 16.3258 7.23743C16.3377 7.14648 16.3309 7.05406 16.3058 6.96585C16.2806 6.87764 16.2377 6.7955 16.1797 6.7245C16.1216 6.65349 16.0496 6.59511 15.9682 6.55297C15.8867 6.51082 15.7975 6.48578 15.706 6.47941C15.6145 6.47303 15.5226 6.48545 15.4361 6.5159C15.3496 6.54634 15.2702 6.59417 15.2029 6.65644C12.7584 8.64255 11.6707 11.3925 11.6707 13.0975C11.6735 13.6936 11.848 14.2762 12.1731 14.7757C12.4982 15.2753 12.9602 15.6707 13.504 15.9148C13.8714 16.0934 14.2749 16.1854 14.6834 16.1837C15.0339 16.2007 15.3841 16.1464 15.713 16.024C16.0418 15.9016 16.3423 15.7137 16.5964 15.4717C16.8504 15.2297 17.0527 14.9387 17.1909 14.6162C17.3291 14.2937 17.4003 13.9465 17.4003 13.5956C17.4003 13.2447 17.3291 12.8975 17.1909 12.575C17.0527 12.2525 16.8504 11.9615 16.5964 11.7195C16.3423 11.4775 16.0418 11.2896 15.713 11.1672C15.3841 11.0448 15.0339 10.9905 14.6834 11.0075V11.0198Z" fill="#38ACFF"/>
</svg>
