<svg width="16" height="17" viewBox="0 0 16 17" fill="none" xmlns="http://www.w3.org/2000/svg">
<path fill-rule="evenodd" clip-rule="evenodd" d="M8.00067 0C5.828 0 5.55533 0.00950603 4.702 0.048364C3.85033 0.0873888 3.269 0.222308 2.76033 0.420267C2.23417 0.62473 1.78783 0.898237 1.34317 1.34335C0.898167 1.7883 0.624833 2.23492 0.419833 2.76125C0.2215 3.27041 0.0865 3.85228 0.0481667 4.70415C0.01 5.55803 0 5.83103 0 8.00508C0 10.1791 0.00966667 10.4511 0.0483333 11.305C0.0875 12.1572 0.222333 12.7389 0.42 13.2479C0.6245 13.7744 0.897833 14.221 1.34267 14.666C1.78717 15.1113 2.2335 15.3854 2.75933 15.5899C3.26833 15.7879 3.84983 15.9228 4.70133 15.9618C5.55467 16.0007 5.82717 16.0102 7.99967 16.0102C10.1725 16.0102 10.4443 16.0007 11.2977 15.9618C12.1493 15.9228 12.7313 15.7879 13.2403 15.5899C13.7663 15.3854 14.212 15.1113 14.6565 14.666C15.1015 14.221 15.3748 13.7744 15.5798 13.2481C15.7765 12.7389 15.9115 12.157 15.9515 11.3052C15.9898 10.4513 15.9998 10.1791 15.9998 8.00508C15.9998 5.83103 15.9898 5.55819 15.9515 4.70432C15.9115 3.85211 15.7765 3.27041 15.5798 2.76142C15.3748 2.23492 15.1015 1.7883 14.6565 1.34335C14.2115 0.89807 13.7665 0.624563 13.2398 0.420267C12.7298 0.222308 12.1482 0.0873888 11.2965 0.048364C10.4432 0.00950603 10.1715 0 7.99817 0H8.00067ZM7.28317 1.44217C7.49617 1.44184 7.73384 1.44217 8.00084 1.44217C10.1368 1.44217 10.39 1.44984 11.2335 1.4882C12.0135 1.52389 12.4368 1.65431 12.7188 1.76388C13.0922 1.90897 13.3583 2.08241 13.6382 2.36259C13.9182 2.64277 14.0915 2.9096 14.2368 3.28317C14.3463 3.56502 14.4768 3.98862 14.5123 4.76912C14.5507 5.61299 14.559 5.86648 14.559 8.00284C14.559 10.1392 14.5507 10.3927 14.5123 11.2366C14.4767 12.017 14.3463 12.4407 14.2368 12.7225C14.0918 13.0961 13.9182 13.3621 13.6382 13.6421C13.3582 13.9223 13.0923 14.0957 12.7188 14.2408C12.4372 14.3509 12.0135 14.4809 11.2335 14.5166C10.3902 14.555 10.1368 14.5633 8.00084 14.5633C5.86467 14.5633 5.6115 14.555 4.76817 14.5166C3.98817 14.4806 3.56484 14.3502 3.28267 14.2406C2.90934 14.0955 2.64267 13.9221 2.36267 13.6419C2.08267 13.3617 1.90934 13.0956 1.764 12.7218C1.6545 12.44 1.524 12.0164 1.4885 11.2359C1.45017 10.392 1.4425 10.1385 1.4425 8.00083C1.4425 5.86314 1.45017 5.61098 1.4885 4.76712C1.52417 3.98662 1.6545 3.56302 1.764 3.28084C1.909 2.90727 2.08267 2.64043 2.36267 2.36026C2.64267 2.08008 2.90934 1.90663 3.28267 1.76121C3.56467 1.65114 3.98817 1.52106 4.76817 1.4852C5.50617 1.45185 5.79217 1.44184 7.28317 1.44017V1.44217ZM12.2712 2.77172C11.7412 2.77172 11.3112 3.20149 11.3112 3.73199C11.3112 4.26233 11.7412 4.6926 12.2712 4.6926C12.8012 4.6926 13.2312 4.26233 13.2312 3.73199C13.2312 3.20166 12.8012 2.77138 12.2712 2.77138V2.77172ZM8.00076 3.89405C5.73193 3.89405 3.89243 5.73471 3.89243 8.00499C3.89243 10.2753 5.73193 12.1151 8.00076 12.1151C10.2696 12.1151 12.1084 10.2753 12.1084 8.00499C12.1084 5.73471 10.2694 3.89405 8.00059 3.89405H8.00076ZM8.00071 5.3369C9.47338 5.3369 10.6674 6.53149 10.6674 8.00526C10.6674 9.47886 9.47338 10.6736 8.00071 10.6736C6.52788 10.6736 5.33405 9.47886 5.33405 8.00526C5.33405 6.53149 6.52788 5.3369 8.00071 5.3369Z" fill="white"/>
</svg>
