<svg width="16" height="16" viewBox="0 0 16 16" fill="none" xmlns="http://www.w3.org/2000/svg">
<path fill-rule="evenodd" clip-rule="evenodd" d="M8.12746 0.146973C6.00596 0.146973 5.73972 0.156249 4.90648 0.194168C4.07487 0.232249 3.50723 0.363907 3.01054 0.557081C2.49677 0.756602 2.06094 1.0235 1.62675 1.45786C1.19223 1.89205 0.925334 2.32787 0.725162 2.84148C0.5315 3.33833 0.399679 3.90614 0.362248 4.73742C0.324981 5.57066 0.315216 5.83707 0.315216 7.95857C0.315216 10.0801 0.324655 10.3455 0.362411 11.1787C0.400655 12.0103 0.532313 12.578 0.725325 13.0747C0.925009 13.5884 1.1919 14.0243 1.62626 14.4585C2.06029 14.893 2.49612 15.1605 3.00957 15.3601C3.50658 15.5532 4.07438 15.6849 4.90583 15.723C5.73907 15.7609 6.00515 15.7702 8.12649 15.7702C10.2481 15.7702 10.5136 15.7609 11.3468 15.723C12.1784 15.6849 12.7467 15.5532 13.2437 15.3601C13.7573 15.1605 14.1925 14.893 14.6265 14.4585C15.0611 14.0243 15.328 13.5884 15.5281 13.0748C15.7202 12.578 15.852 12.0102 15.891 11.1789C15.9285 10.3457 15.9382 10.0801 15.9382 7.95857C15.9382 5.83707 15.9285 5.57082 15.891 4.73759C15.852 3.90598 15.7202 3.33833 15.5281 2.84165C15.328 2.32787 15.0611 1.89205 14.6265 1.45786C14.192 1.02334 13.7575 0.75644 13.2432 0.557081C12.7453 0.363907 12.1773 0.232249 11.3457 0.194168C10.5124 0.156249 10.2472 0.146973 8.12502 0.146973H8.12746ZM7.42688 1.55424C7.63486 1.55392 7.86693 1.55424 8.12764 1.55424C10.2133 1.55424 10.4605 1.56173 11.2842 1.59916C12.0458 1.63399 12.4592 1.76125 12.7345 1.86817C13.0991 2.00976 13.359 2.17901 13.6322 2.45242C13.9056 2.72582 14.0749 2.98621 14.2168 3.35075C14.3237 3.62578 14.4511 4.03915 14.4858 4.80078C14.5232 5.62425 14.5314 5.87162 14.5314 7.95633C14.5314 10.0411 14.5232 10.2884 14.4858 11.1119C14.451 11.8735 14.3237 12.2869 14.2168 12.5619C14.0752 12.9265 13.9056 13.186 13.6322 13.4593C13.3588 13.7327 13.0992 13.9019 12.7345 14.0435C12.4595 14.1509 12.0458 14.2779 11.2842 14.3127C10.4607 14.3501 10.2133 14.3583 8.12764 14.3583C6.04179 14.3583 5.79458 14.3501 4.97111 14.3127C4.20948 14.2775 3.79612 14.1503 3.52059 14.0434C3.15605 13.9018 2.89567 13.7325 2.62226 13.4591C2.34886 13.1857 2.1796 12.926 2.03769 12.5613C1.93077 12.2862 1.80335 11.8729 1.76868 11.1112C1.73125 10.2878 1.72377 10.0404 1.72377 7.95438C1.72377 5.86836 1.73125 5.6223 1.76868 4.79882C1.80351 4.03719 1.93077 3.62383 2.03769 3.34847C2.17928 2.98393 2.34886 2.72354 2.62226 2.45014C2.89567 2.17673 3.15605 2.00748 3.52059 1.86557C3.79595 1.75816 4.20948 1.63122 4.97111 1.59623C5.69173 1.56368 5.97099 1.55392 7.42688 1.55229V1.55424ZM12.2974 2.85137C11.7799 2.85137 11.36 3.27076 11.36 3.78844C11.36 4.30596 11.7799 4.72583 12.2974 4.72583C12.815 4.72583 13.2348 4.30596 13.2348 3.78844C13.2348 3.27092 12.815 2.85105 12.2974 2.85105V2.85137ZM8.12757 3.94669C5.91217 3.94669 4.11599 5.74287 4.11599 7.95827C4.11599 10.1737 5.91217 11.969 8.12757 11.969C10.343 11.969 12.1385 10.1737 12.1385 7.95827C12.1385 5.74287 10.3428 3.94669 8.1274 3.94669H8.12757ZM8.12749 5.35463C9.56548 5.35463 10.7314 6.52035 10.7314 7.95849C10.7314 9.39648 9.56548 10.5624 8.12749 10.5624C6.68934 10.5624 5.52363 9.39648 5.52363 7.95849C5.52363 6.52035 6.68934 5.35463 8.12749 5.35463Z" fill="#38ACFF"/>
</svg>
