<svg width="93" height="26" viewBox="0 0 93 26" fill="none" xmlns="http://www.w3.org/2000/svg">
<path d="M0.0546875 25.2202V0.94873H5.20117V20.9702H15.0459V25.2202H0.0546875ZM41.3096 13.0513C41.3096 14.9217 41.0771 16.6261 40.6123 18.1646C40.1475 19.6919 39.4391 21.009 38.4873 22.1157C37.5465 23.2225 36.3512 24.0747 34.9014 24.6724C33.4515 25.259 31.736 25.5522 29.7549 25.5522C27.7738 25.5522 26.0583 25.259 24.6084 24.6724C23.1585 24.0747 21.9577 23.2225 21.0059 22.1157C20.0651 21.009 19.3623 19.6864 18.8975 18.1479C18.4326 16.6095 18.2002 14.8996 18.2002 13.0181C18.2002 10.5057 18.6097 8.31982 19.4287 6.46045C20.2588 4.59001 21.5316 3.14014 23.2471 2.11084C24.9626 1.08154 27.1429 0.566895 29.7881 0.566895C32.4222 0.566895 34.5859 1.08154 36.2793 2.11084C37.9837 3.14014 39.2454 4.59001 40.0645 6.46045C40.8945 8.33089 41.3096 10.5278 41.3096 13.0513ZM23.5957 13.0513C23.5957 14.7446 23.806 16.2056 24.2266 17.4341C24.6582 18.6515 25.3278 19.5923 26.2354 20.2563C27.1429 20.9093 28.3161 21.2358 29.7549 21.2358C31.2158 21.2358 32.4001 20.9093 33.3076 20.2563C34.2152 19.5923 34.8737 18.6515 35.2832 17.4341C35.7038 16.2056 35.9141 14.7446 35.9141 13.0513C35.9141 10.5057 35.4382 8.50244 34.4863 7.0415C33.5345 5.58057 31.9684 4.8501 29.7881 4.8501C28.3382 4.8501 27.154 5.18213 26.2354 5.84619C25.3278 6.49919 24.6582 7.43994 24.2266 8.66846C23.806 9.8859 23.5957 11.3468 23.5957 13.0513ZM55.5537 11.5903H65.1826V24.1743C63.9098 24.5949 62.5872 24.9325 61.2148 25.187C59.8424 25.4305 58.2874 25.5522 56.5498 25.5522C54.137 25.5522 52.0895 25.0763 50.4072 24.1245C48.7249 23.1727 47.4466 21.7671 46.5723 19.9077C45.6979 18.0483 45.2607 15.7629 45.2607 13.0513C45.2607 10.5057 45.7477 8.30322 46.7217 6.44385C47.7067 4.58447 49.14 3.14567 51.0215 2.12744C52.9141 1.10921 55.2217 0.600098 57.9443 0.600098C59.2282 0.600098 60.4954 0.738444 61.7461 1.01514C62.9967 1.29183 64.1312 1.65153 65.1494 2.09424L63.4395 6.21143C62.6979 5.83512 61.8512 5.51969 60.8994 5.26514C59.9476 5.01058 58.9515 4.8833 57.9111 4.8833C56.417 4.8833 55.1165 5.2264 54.0098 5.9126C52.9141 6.5988 52.0618 7.56169 51.4531 8.80127C50.8555 10.0298 50.5566 11.4797 50.5566 13.1509C50.5566 14.7336 50.7725 16.1392 51.2041 17.3677C51.6357 18.5851 52.3164 19.5425 53.2461 20.2397C54.1758 20.9259 55.3877 21.269 56.8818 21.269C57.6123 21.269 58.2266 21.2358 58.7246 21.1694C59.2337 21.092 59.7096 21.0145 60.1523 20.937V15.8735H55.5537V11.5903ZM93.0068 13.0513C93.0068 14.9217 92.7744 16.6261 92.3096 18.1646C91.8447 19.6919 91.1364 21.009 90.1846 22.1157C89.2438 23.2225 88.0485 24.0747 86.5986 24.6724C85.1488 25.259 83.4333 25.5522 81.4521 25.5522C79.471 25.5522 77.7555 25.259 76.3057 24.6724C74.8558 24.0747 73.6549 23.2225 72.7031 22.1157C71.7624 21.009 71.0596 19.6864 70.5947 18.1479C70.1299 16.6095 69.8975 14.8996 69.8975 13.0181C69.8975 10.5057 70.307 8.31982 71.126 6.46045C71.9561 4.59001 73.2288 3.14014 74.9443 2.11084C76.6598 1.08154 78.8402 0.566895 81.4854 0.566895C84.1195 0.566895 86.2832 1.08154 87.9766 2.11084C89.681 3.14014 90.9427 4.59001 91.7617 6.46045C92.5918 8.33089 93.0068 10.5278 93.0068 13.0513ZM75.293 13.0513C75.293 14.7446 75.5033 16.2056 75.9238 17.4341C76.3555 18.6515 77.0251 19.5923 77.9326 20.2563C78.8402 20.9093 80.0133 21.2358 81.4521 21.2358C82.9131 21.2358 84.0973 20.9093 85.0049 20.2563C85.9124 19.5923 86.571 18.6515 86.9805 17.4341C87.401 16.2056 87.6113 14.7446 87.6113 13.0513C87.6113 10.5057 87.1354 8.50244 86.1836 7.0415C85.2318 5.58057 83.6657 4.8501 81.4854 4.8501C80.0355 4.8501 78.8512 5.18213 77.9326 5.84619C77.0251 6.49919 76.3555 7.43994 75.9238 8.66846C75.5033 9.8859 75.293 11.3468 75.293 13.0513Z" fill="white"/>
</svg>
