<svg width="20" height="17" viewBox="0 0 20 17" fill="none" xmlns="http://www.w3.org/2000/svg">
<path fill-rule="evenodd" clip-rule="evenodd" d="M9.93445 4.25895L9.97642 4.95144L9.27694 4.86664C6.73083 4.5416 4.50649 3.43928 2.6179 1.58794L1.69458 0.669339L1.45676 1.34769C0.953135 2.85985 1.2749 4.45681 2.32411 5.53086C2.8837 6.12442 2.75779 6.20922 1.79251 5.85591C1.45676 5.74285 1.16298 5.65805 1.135 5.70045C1.03707 5.79938 1.37282 7.08542 1.63862 7.59418C2.00235 8.3008 2.7438 8.99329 3.5552 9.40312L4.24069 9.72817L3.42929 9.7423C2.64587 9.7423 2.6179 9.75643 2.70183 10.0532C2.98163 10.9718 4.0868 11.9469 5.31789 12.3709L6.18524 12.6677L5.4298 13.1199C4.31064 13.77 2.99561 14.1375 1.68059 14.1657C1.05106 14.1799 0.533447 14.2364 0.533447 14.2788C0.533447 14.4201 2.24018 15.2115 3.23344 15.5224C6.21322 16.441 9.75259 16.0453 12.4106 14.4766C14.2992 13.3602 16.1878 11.1414 17.0691 8.99329C17.5448 7.84857 18.0204 5.75698 18.0204 4.75358C18.0204 4.1035 18.0624 4.0187 18.8458 3.24142C19.3075 2.78919 19.7411 2.29456 19.8251 2.15323C19.965 1.88472 19.951 1.88472 19.2375 2.12497C18.0484 2.54894 17.8805 2.49241 18.4681 1.85646C18.9018 1.40422 19.4194 0.584545 19.4194 0.344296C19.4194 0.301899 19.2095 0.37256 18.9717 0.499751C18.7199 0.641075 18.1603 0.85306 17.7406 0.980251L16.9852 1.2205L16.2997 0.754133C15.922 0.499751 15.3904 0.217105 15.1106 0.13231C14.3971 -0.0655422 13.3059 -0.0372776 12.6624 0.18884C10.9137 0.824795 9.80854 2.46415 9.93445 4.25895Z" fill="white"/>
</svg>
