<svg width="20" height="16" viewBox="0 0 20 16" fill="none" xmlns="http://www.w3.org/2000/svg">
<path fill-rule="evenodd" clip-rule="evenodd" d="M9.77562 4.30299L9.8166 4.97873L9.13359 4.89599C6.64745 4.5788 4.47549 3.50312 2.63137 1.69653L1.72981 0.800134L1.49758 1.46209C1.00582 2.9377 1.32 4.49606 2.34451 5.54415C2.89092 6.12336 2.76798 6.20611 1.82543 5.86134C1.49758 5.75101 1.21072 5.66827 1.1834 5.70964C1.08778 5.80618 1.41562 7.06114 1.67517 7.5576C2.03033 8.24714 2.75432 8.92289 3.5466 9.32282L4.21595 9.64001L3.42366 9.6538C2.65869 9.6538 2.63137 9.66759 2.71333 9.95719C2.98654 10.8536 4.06569 11.8052 5.26778 12.2189L6.11471 12.5085L5.37706 12.9498C4.28425 13.5842 3.0002 13.9427 1.71615 13.9703C1.10144 13.9841 0.596016 14.0393 0.596016 14.0806C0.596016 14.2185 2.26255 14.9908 3.23242 15.2942C6.14202 16.1906 9.59804 15.8045 12.1935 14.2737C14.0376 13.1842 15.8817 11.0191 16.7423 8.92289C17.2067 7.80584 17.6712 5.76481 17.6712 4.78566C17.6712 4.15129 17.7121 4.06854 18.4771 3.31005C18.9279 2.86875 19.3514 2.38607 19.4333 2.24816C19.5699 1.98614 19.5563 1.98614 18.8596 2.22058C17.6985 2.6343 17.5346 2.57914 18.1083 1.95856C18.5318 1.51725 19.0372 0.717389 19.0372 0.482946C19.0372 0.441574 18.8323 0.510528 18.6001 0.634645C18.3542 0.772552 17.8078 0.979414 17.398 1.10353L16.6603 1.33797L15.991 0.882878C15.6221 0.634645 15.1031 0.35883 14.8299 0.276085C14.1332 0.0830146 13.0677 0.110596 12.4393 0.331248C10.7318 0.951832 9.65268 2.55156 9.77562 4.30299Z" fill="#38ACFF"/>
</svg>
