<svg width="23" height="17" viewBox="0 0 23 17" fill="none" xmlns="http://www.w3.org/2000/svg">
<path fill-rule="evenodd" clip-rule="evenodd" d="M21.7957 2.50004C21.5397 1.51593 20.7853 0.740986 19.8275 0.477981C18.0916 0 11.1304 0 11.1304 0C11.1304 0 4.16923 0 2.43327 0.477981C1.47542 0.740986 0.721075 1.51593 0.465075 2.50004C0 4.28362 0 8.00508 0 8.00508C0 8.00508 0 11.7264 0.465075 13.5101C0.721075 14.4942 1.47542 15.2692 2.43327 15.5323C4.16923 16.0102 11.1304 16.0102 11.1304 16.0102C11.1304 16.0102 18.0916 16.0102 19.8275 15.5323C20.7853 15.2692 21.5397 14.4942 21.7957 13.5101C22.2609 11.7264 22.2609 8.00508 22.2609 8.00508C22.2609 8.00508 22.2609 4.28362 21.7957 2.50004Z" fill="white"/>
<path fill-rule="evenodd" clip-rule="evenodd" d="M9.0437 11.834V4.87305L14.6089 8.35365L9.0437 11.834Z" fill="#533E2D"/>
</svg>
