<svg width="23" height="16" viewBox="0 0 23 16" fill="none" xmlns="http://www.w3.org/2000/svg">
<path fill-rule="evenodd" clip-rule="evenodd" d="M21.7045 2.58658C21.4545 1.62626 20.7179 0.870049 19.7826 0.6134C18.0877 0.146973 11.2904 0.146973 11.2904 0.146973C11.2904 0.146973 4.49315 0.146973 2.79806 0.6134C1.86277 0.870049 1.1262 1.62626 0.876226 2.58658C0.422104 4.32706 0.422104 7.95857 0.422104 7.95857C0.422104 7.95857 0.422104 11.5899 0.876226 13.3305C1.1262 14.2909 1.86277 15.0471 2.79806 15.3039C4.49315 15.7702 11.2904 15.7702 11.2904 15.7702C11.2904 15.7702 18.0877 15.7702 19.7826 15.3039C20.7179 15.0471 21.4545 14.2909 21.7045 13.3305C22.1587 11.5899 22.1587 7.95857 22.1587 7.95857C22.1587 7.95857 22.1587 4.32706 21.7045 2.58658Z" fill="#38ACFF"/>
<path fill-rule="evenodd" clip-rule="evenodd" d="M9.25282 11.6945V4.90186L14.687 8.29833L9.25282 11.6945Z" fill="white"/>
</svg>
